<?xml version="1.0" encoding="UTF-8"?><svg xmlns="http://www.w3.org/2000/svg" xmlns:xlink="http://www.w3.org/1999/xlink" clip-rule="evenodd" fill-rule="evenodd" height="19.6" preserveAspectRatio="xMidYMid meet" stroke-linejoin="round" stroke-miterlimit="1.414" version="1.0" viewBox="0.0 0.0 32.2 19.6" width="32.2" zoomAndPan="magnify"><g id="change1_1"><path d="m9.019 5.545l-1.208-0.497-2.452 4.906 1.208 0.496 2.452-4.905z" fill="#6c6c6c"/></g><g id="change1_2"><path d="m26.858 5.787l-1.208-0.496-2.452 4.905 1.208 0.496 2.452-4.905z" fill="#6c6c6c"/></g><g id="change1_3"><path d="m11.835 4.801l-1.172 0.477 2.521 5.095 1.173-0.477-2.522-5.095z" fill="#6c6c6c"/></g><g id="change1_4"><path d="m29.674 5.043l-1.172 0.477 2.521 5.095 1.173-0.477-2.522-5.095z" fill="#6c6c6c"/></g><g id="change1_5"><path d="M7.893 11.289H9.693999999999999V18.009999999999998H7.893z" fill="#6c6c6c"/></g><g id="change1_6"><path d="M25.732 11.532H27.532999999999998V18.253H25.732z" fill="#6c6c6c"/></g><g id="change1_7"><path d="m11.919 5.299c0-0.562-0.456-1.018-1.018-1.018h-2.036c-0.562 0-1.018 0.456-1.018 1.018v5.694c0 0.562 0.456 1.018 1.018 1.018h2.036c0.562 0 1.018-0.456 1.018-1.018v-5.694z" fill="#6c6c6c"/></g><g id="change1_8"><path d="m29.758 5.541c0-0.562-0.456-1.018-1.018-1.018h-2.036c-0.562 0-1.018 0.456-1.018 1.018v5.694c0 0.562 0.456 1.018 1.018 1.018h2.036c0.562 0 1.018-0.456 1.018-1.018v-5.694z" fill="#6c6c6c"/></g><g id="change1_9"><ellipse cx="9.871" cy="2.249" fill="#6c6c6c" rx="2.349" ry="2.249"/></g><g id="change1_10"><ellipse cx="27.71" cy="2.491" fill="#6c6c6c" rx="2.349" ry="2.249"/></g><g id="change1_11"><path d="M10.005 11.324H11.859000000000002V18.027H10.005z" fill="#6c6c6c"/></g><g id="change1_12"><path d="M27.844 11.567H29.698V18.27H27.844z" fill="#6c6c6c"/></g><g id="change1_13"><path d="m18.805 5.671l-1.209-0.496-2.452 4.905 1.209 0.497 2.452-4.906z" fill="#6c6c6c"/></g><g id="change1_14"><path d="m21.408 4.705l-1.292 0.616 2.881 4.966 1.292-0.616-2.881-4.966z" fill="#6c6c6c"/></g><g id="change1_15"><path d="M17.678 11.416H19.479V18.137H17.678z" fill="#6c6c6c"/></g><g id="change1_16"><path d="m21.705 5.425c0-0.561-0.456-1.018-1.018-1.018h-2.036c-0.562 0-1.018 0.457-1.018 1.018v5.694c0 0.562 0.456 1.018 1.018 1.018h2.036c0.562 0 1.018-0.456 1.018-1.018v-5.694z" fill="#6c6c6c"/></g><g id="change1_17"><ellipse cx="19.656" cy="2.376" fill="#6c6c6c" rx="2.349" ry="2.249"/></g><g id="change1_18"><path d="M19.791 11.451H21.645V18.154H19.791z" fill="#6c6c6c"/></g><g id="change2_1"><path d="m3.78 6.585l-1.248-0.512-2.532 5.065 1.248 0.512 2.532-5.065z" fill="#b6b4b4"/></g><g id="change2_2"><path d="m6.688 5.817l-1.211 0.493 2.603 5.26 1.211-0.492-2.603-5.261z" fill="#b6b4b4"/></g><g id="change2_3"><path d="M2.616 12.517H4.475V19.457H2.616z" fill="#b6b4b4"/></g><g id="change2_4"><path d="m6.774 6.331c0-0.58-0.471-1.051-1.051-1.051h-2.102c-0.58 0-1.051 0.471-1.051 1.051v5.88c0 0.58 0.471 1.051 1.051 1.051h2.102c0.58 0 1.051-0.471 1.051-1.051v-5.88z" fill="#b6b4b4"/></g><g id="change2_5"><ellipse cx="4.659" cy="3.182" fill="#b6b4b4" rx="2.425" ry="2.322"/></g><g id="change2_6"><path d="M4.798 12.553H6.713V19.474H4.798z" fill="#b6b4b4"/></g><g id="change3_1"><path d="m9.52 2.694l1.123-0.712 3.517 4.555-1.122 0.712-3.518-4.555z" fill="#994100"/></g><g id="change3_2"><path d="m19.346 1.578l1.121 0.643-3.397 4.874-1.122-0.642 3.398-4.875z" fill="#994100"/></g><g id="change3_3"><path d="M13.018 12.495H14.877V19.435H13.018z" fill="#994100"/></g><g id="change3_4"><path d="m17.176 6.309c0-0.58-0.471-1.051-1.051-1.051h-2.102c-0.581 0-1.052 0.471-1.052 1.051v5.88c0 0.58 0.471 1.051 1.052 1.051h2.102c0.58 0 1.051-0.471 1.051-1.051v-5.88z" fill="#994100"/></g><g id="change3_5"><ellipse cx="15.061" cy="3.16" fill="#994100" rx="2.425" ry="2.322"/></g><g id="change3_6"><path d="M15.2 12.531H17.115V19.452H15.2z" fill="#994100"/></g><g id="change2_7"><path d="m24.286 6.694l-1.248-0.512-2.532 5.065 1.248 0.512 2.532-5.065z" fill="#b6b4b4"/></g><g id="change2_8"><path d="m26.974 5.696l-1.334 0.636 2.975 5.129 1.334-0.636-2.975-5.129z" fill="#b6b4b4"/></g><g id="change2_9"><path d="M23.122 12.626H24.981V19.566H23.122z" fill="#b6b4b4"/></g><g id="change2_10"><path d="m27.28 6.44c0-0.58-0.471-1.051-1.051-1.051h-2.102c-0.58 0-1.051 0.471-1.051 1.051v5.88c0 0.58 0.471 1.051 1.051 1.051h2.102c0.58 0 1.051-0.471 1.051-1.051v-5.88z" fill="#b6b4b4"/></g><g id="change2_11"><ellipse cx="25.165" cy="3.291" fill="#b6b4b4" rx="2.425" ry="2.322"/></g><g id="change2_12"><path d="M25.304 12.662H27.218999999999998V19.583000000000002H25.304z" fill="#b6b4b4"/></g></svg>