<?xml version="1.0" encoding="UTF-8"?><svg xmlns="http://www.w3.org/2000/svg" xmlns:xlink="http://www.w3.org/1999/xlink" height="464.4" preserveAspectRatio="xMidYMid meet" version="1.0" viewBox="-1.4 -0.0 499.0 464.4" width="499.0" zoomAndPan="magnify"><defs><clipPath id="a"><path d="M 333 401 L 473 401 L 473 458.589844 L 333 458.589844 Z M 333 401"/></clipPath><clipPath id="b"><path d="M 315 172 L 495.191406 172 L 495.191406 409 L 315 409 Z M 315 172"/></clipPath></defs><g><g id="change1_1"><path d="M 342.730469 238.832031 C 337.699219 238.832031 332.636719 233.601562 332.371094 233.320312 L 333.09375 232.632812 C 333.171875 232.710938 340.773438 240.5625 345.972656 236.785156 L 346.558594 237.59375 C 345.34375 238.480469 344.035156 238.832031 342.730469 238.832031 Z M 352.339844 242.992188 C 352.339844 242.949219 352.34375 242.90625 352.34375 242.863281 C 352.332031 242.65625 352.3125 242.433594 352.292969 242.214844 C 351.730469 236.285156 347.972656 226.125 347.972656 226.125 L 346.53125 226.757812 C 344.863281 224.546875 342.816406 222.605469 340.308594 221.019531 L 280.902344 229.1875 C 280.902344 229.1875 259.117188 256.765625 282.5625 303.0625 L 302.53125 303.0625 C 302.03125 288.878906 303.476562 278.453125 305.742188 270.792969 L 292.765625 254.007812 L 293.554688 253.394531 L 306.101562 269.621094 C 308.199219 263.035156 310.910156 258.617188 313.441406 255.683594 C 319.488281 248.667969 325.722656 248.296875 325.988281 248.285156 L 326.035156 249.285156 C 325.792969 249.296875 301.703125 251.125 303.53125 303.042969 L 303.027344 303.0625 L 338.605469 303.0625 C 338.605469 303.0625 355.085938 268.507812 352.339844 242.992188" fill="#100f0d"/></g><g id="change2_1"><path d="M 66.03125 381.871094 L 37.886719 410.808594 L 37.886719 425.105469 L 151.085938 425.105469 C 151.085938 425.105469 145.351562 436.082031 123.648438 446.039062 C 101.945312 455.996094 50.882812 464.425781 28.242188 447.316406 C 5.605469 430.210938 31.734375 359.488281 31.734375 359.488281 L 66.03125 381.871094" fill="#bb4d81"/></g><g clip-path="url(#a)" id="change1_19"><path d="M 460.984375 401.335938 C 460.984375 401.335938 471.5625 431.347656 472.328125 455.035156 C 472.328125 455.035156 395.648438 467.488281 357.691406 445.785156 C 330.414062 430.1875 333.351562 425.105469 333.351562 425.105469 L 454.058594 425.105469 L 454.058594 411.828125 L 443.539062 401.273438 C 443.539062 401.273438 455.339844 402.738281 460.984375 401.335938" fill="#100f0d"/></g><g id="change1_2"><path d="M 38.386719 424.605469 L 453.558594 424.605469 L 453.558594 412.035156 L 345.433594 303.5625 L 142.78125 303.5625 L 38.386719 411.011719 Z M 454.558594 425.605469 L 37.386719 425.605469 L 37.386719 410.601562 L 37.527344 410.457031 L 142.355469 302.5625 L 345.851562 302.5625 L 345.996094 302.710938 L 454.558594 411.621094 L 454.558594 425.605469" fill="#100f0d"/></g><g id="change3_1"><path d="M 272.753906 323.339844 L 238.398438 379.953125 L 169.308594 375.890625 L 210.648438 321.199219 L 272.753906 323.339844" fill="#fff"/></g><g id="change1_3"><path d="M 170.269531 375.445312 L 238.128906 379.4375 L 271.886719 323.8125 L 210.890625 321.707031 Z M 238.667969 380.472656 L 168.347656 376.335938 L 210.40625 320.6875 L 273.625 322.871094 L 273.183594 323.601562 L 238.667969 380.472656" fill="#100f0d"/></g><g id="change3_2"><path d="M 194.371094 310.625 L 247.089844 310.0625 L 209.792969 366.671875 L 147.734375 363.621094 L 194.371094 310.625" fill="#fff"/></g><g id="change1_4"><path d="M 148.796875 363.175781 L 209.53125 366.15625 L 246.15625 310.570312 L 194.601562 311.125 Z M 210.054688 367.1875 L 209.769531 367.171875 L 146.675781 364.070312 L 194.144531 310.128906 L 194.367188 310.125 L 248.023438 309.554688 L 210.054688 367.1875" fill="#100f0d"/></g><g id="change3_3"><path d="M 290.691406 317.152344 L 253.917969 373.890625 L 184.699219 371.417969 L 230.570312 316.984375 L 290.691406 317.152344" fill="#fff"/></g><g id="change1_5"><path d="M 185.746094 370.953125 L 253.652344 373.382812 L 289.773438 317.648438 L 230.800781 317.484375 Z M 254.183594 374.402344 L 253.898438 374.390625 L 183.65625 371.878906 L 230.339844 316.480469 L 230.570312 316.484375 L 291.609375 316.65625 L 254.183594 374.402344" fill="#100f0d"/></g><g id="change4_1"><path d="M 124.9375 204.84375 C 124.9375 204.84375 127.695312 223.867188 120.109375 227.710938 C 117.539062 229.007812 114.808594 229.808594 112.308594 230.28125 C 109.539062 214.835938 107.953125 199.972656 112.621094 188.601562 C 113.765625 185.8125 114.601562 183.183594 115.179688 180.695312 C 118.628906 178.390625 120.761719 175.992188 121.882812 173.667969 C 122.078125 174.453125 122.253906 175.289062 122.378906 176.179688 C 124.347656 189.875 121.292969 195.097656 129.464844 197.5625 C 129.464844 197.5625 129.070312 199.425781 124.9375 204.84375" fill="#ebadb1"/></g><g id="change2_2"><path d="M 125.328125 215.511719 C 123.15625 216.515625 115.871094 214.015625 115.871094 214.015625 C 119.914062 214.015625 124.742188 208.691406 126.023438 208.789062 C 127.304688 208.890625 125.425781 212.042969 125.425781 212.042969 C 125.425781 212.042969 127.5 214.507812 125.328125 215.511719" fill="#bb4d81"/></g><g id="change3_4"><path d="M 121.167969 196.605469 L 115.300781 194.222656 L 121.167969 187.328125 C 122.199219 188.292969 121.167969 196.605469 121.167969 196.605469" fill="#fff"/></g><g id="change4_2"><path d="M 175.503906 311.65625 C 175.472656 314.117188 169.246094 329.074219 160.910156 333.839844 C 152.570312 338.605469 144.757812 334.800781 144.757812 334.800781 C 144.757812 334.800781 144.746094 332.839844 145.433594 329.9375 C 143.589844 319.847656 152.503906 313.414062 155.007812 312.332031 C 156.34375 311.753906 156.492188 312.539062 156.3125 313.453125 C 156.417969 313.375 156.519531 313.292969 156.625 313.214844 C 171.746094 302.3125 167.882812 307.84375 167.882812 307.84375 C 167.882812 307.84375 170.410156 306.15625 171.523438 306.523438 C 172.632812 306.894531 171.683594 308.574219 171.683594 308.574219 C 171.683594 308.574219 172.734375 307.363281 174.417969 307.730469 C 176.097656 308.097656 171.226562 314.0625 171.226562 314.0625 C 171.226562 314.0625 175.542969 309.023438 175.503906 311.65625" fill="#ebadb1"/></g><g id="change1_6"><path d="M 163.078125 331.695312 L 163.71875 332.464844 C 163.789062 332.40625 170.753906 326.519531 174.515625 316.492188 L 173.578125 316.140625 C 169.914062 325.910156 163.144531 331.640625 163.078125 331.695312 Z M 174.90625 310.414062 C 173.429688 310.414062 168.285156 315.832031 166.144531 318.160156 L 166.878906 318.839844 C 170.113281 315.324219 174.101562 311.484375 174.90625 311.414062 L 174.910156 310.414062 C 174.910156 310.414062 174.90625 310.414062 174.90625 310.414062 Z M 171.292969 308.261719 C 171.65625 307.769531 171.875 307.1875 171.800781 307.054688 C 171.800781 307.054688 171.6875 306.945312 171.183594 306.992188 C 166.722656 307.417969 158.707031 317.402344 158.628906 317.503906 L 157.847656 316.882812 C 158.117188 316.539062 163.378906 309.988281 167.96875 307.214844 C 166.300781 307.308594 161.363281 310.574219 158.917969 312.203125 C 155.46875 314.496094 151.011719 321.171875 150.96875 321.238281 L 150.136719 320.6875 C 150.285156 320.457031 153.207031 316.085938 156.230469 313.148438 L 156.132812 313.128906 C 156.152344 313.015625 156.144531 312.777344 156.054688 312.722656 C 156.035156 312.710938 155.527344 312.417969 153.425781 313.835938 C 149.691406 316.347656 145.53125 321.058594 146.074219 326.066406 L 145.078125 326.175781 C 144.488281 320.722656 148.902344 315.671875 152.863281 313.003906 C 154.695312 311.769531 155.886719 311.414062 156.605469 311.886719 C 156.816406 312.023438 156.933594 312.21875 157.015625 312.421875 C 157.46875 312.019531 157.921875 311.664062 158.363281 311.371094 C 163.796875 307.757812 167.023438 305.875 168.496094 306.261719 L 168.296875 307.023438 C 169.28125 306.464844 170.234375 306.078125 171.089844 305.996094 C 171.886719 305.925781 172.417969 306.113281 172.671875 306.566406 C 172.839844 306.863281 172.835938 307.203125 172.757812 307.535156 C 173.351562 307.316406 173.921875 307.203125 174.445312 307.230469 L 174.390625 308.230469 C 174.347656 308.226562 174.308594 308.226562 174.265625 308.226562 C 171.195312 308.226562 165.644531 314.332031 163.738281 316.71875 L 162.957031 316.09375 C 163.183594 315.808594 167.4375 310.527344 171.292969 308.261719" fill="#100f0d"/></g><g id="change1_7"><path d="M 124.167969 188.976562 C 124.167969 188.976562 122.585938 187.230469 121.171875 187.148438 C 119.757812 187.0625 115.300781 194.222656 115.300781 194.222656 L 120.148438 189.945312 L 120.648438 196.398438 L 121.171875 196.820312 C 121.171875 196.820312 122.277344 190.328125 121.675781 188.820312 Z M 116.003906 182.777344 C 114.867188 183.566406 114.03125 186.820312 114.082031 187.445312 C 114.128906 188.074219 121.226562 183.863281 122.050781 183.714844 C 122.875 183.566406 122.28125 180.363281 122.28125 180.363281 C 121.1875 179.316406 117.136719 181.992188 116.003906 182.777344 Z M 122.273438 226.394531 C 126.304688 221.917969 125.847656 215.730469 125.828125 215.46875 L 124.828125 215.550781 C 124.835938 215.609375 125.277344 221.566406 121.53125 225.722656 C 119.191406 228.316406 115.71875 229.683594 111.207031 229.78125 L 111.226562 230.78125 C 116.027344 230.675781 119.742188 229.199219 122.273438 226.394531 Z M 129.910156 197.796875 L 130.269531 197.105469 L 129.492188 197.0625 C 128.246094 196.996094 126.113281 195.242188 125.398438 194.574219 L 124.714844 195.304688 C 124.96875 195.542969 126.980469 197.386719 128.707031 197.921875 C 127.953125 199.304688 126.015625 202.777344 124.554688 204.523438 L 125.324219 205.164062 C 127.234375 202.878906 129.800781 198.003906 129.910156 197.796875 Z M 125.75 201.882812 L 125.101562 201.121094 L 122.585938 203.261719 L 123.234375 204.023438 Z M 118.636719 214.738281 C 117.773438 214.738281 116.828125 214.671875 115.796875 214.507812 L 115.949219 213.519531 C 122.300781 214.519531 125.035156 211.730469 125.0625 211.699219 L 125.792969 212.386719 C 125.6875 212.496094 123.527344 214.738281 118.636719 214.738281" fill="#100f0d"/></g><g id="change5_1"><path d="M 131.234375 382.210938 C 111.648438 377.445312 106.628906 339.402344 106.628906 339.402344 L 63.542969 383.636719 C 63.542969 383.636719 36.074219 382.890625 28.242188 374.039062 C 28.242188 374.039062 2.03125 376.765625 0.328125 348.847656 C -1.371094 320.933594 4.074219 262.039062 4.074219 262.039062 C 4.074219 262.039062 27.394531 244.847656 53.265625 243.316406 C 55.496094 243.183594 57.542969 243.066406 59.4375 242.964844 L 47.5625 263.742188 L 59.609375 321.167969 C 59.609375 321.167969 84.644531 331.09375 110.605469 300.382812 L 107.113281 245.570312 C 122.054688 247.695312 138.144531 250.371094 139.222656 252.167969 C 141.265625 255.570312 148.074219 329.445312 148.074219 329.445312 C 148.074219 329.445312 154.542969 324.679688 162.371094 329.445312 C 170.203125 334.210938 150.820312 386.976562 131.234375 382.210938" fill="#ca721c"/></g><g id="change1_8"><path d="M 103.445312 186.011719 L 102.832031 185.21875 C 102.949219 185.128906 114.734375 175.875 114.175781 168.148438 C 114.03125 166.183594 113.082031 164.464844 111.34375 163.011719 C 111.746094 163.976562 112.046875 165.242188 111.90625 166.761719 C 111.558594 170.488281 108.703125 174.214844 103.421875 177.832031 L 102.855469 177.007812 C 107.882812 173.5625 110.589844 170.085938 110.910156 166.667969 C 111.203125 163.550781 109.320312 161.625 109.304688 161.605469 L 106.710938 159.003906 L 109.902344 160.820312 C 113.1875 162.683594 114.960938 165.125 115.171875 168.078125 C 115.769531 176.335938 103.949219 185.617188 103.445312 186.011719 Z M 101.386719 152.816406 C 107.433594 153.890625 109.613281 156.910156 110.335938 158.390625 C 107.992188 156.054688 104.980469 154.199219 101.386719 152.816406 Z M 121.882812 173.667969 C 122.582031 172.226562 122.890625 170.8125 122.902344 169.472656 C 123.667969 170.648438 124.109375 171.863281 124.035156 173.074219 C 123.871094 175.675781 121.257812 177.972656 116.28125 179.917969 C 119.085938 177.855469 120.886719 175.734375 121.882812 173.667969 Z M 118.433594 265.921875 C 117.269531 254.589844 114.441406 242.261719 112.308594 230.28125 C 111.472656 225.625 110.753906 221.027344 110.273438 216.558594 C 113.949219 228.390625 119.824219 250.320312 118.433594 265.921875 Z M 114.9375 181.644531 C 121.527344 179.394531 124.976562 176.539062 125.191406 173.144531 C 125.316406 171.117188 124.265625 169.125 122.664062 167.296875 C 121.882812 164.03125 119.347656 161.394531 116.464844 160.121094 C 114.769531 159.367188 113.183594 158.945312 111.71875 158.730469 C 111.3125 157.457031 108.6875 151.179688 96.320312 151.269531 C 91.984375 150.25 87.042969 149.769531 81.582031 149.839844 C 70.027344 149.992188 61.726562 155.929688 55.996094 162.703125 C 49.476562 170.425781 45.726562 180.148438 45.125 190.234375 C 42.277344 237.863281 -0.46875 274.195312 29.851562 307.316406 C 44.859375 323.710938 63.90625 326.199219 80.5 321.347656 C 89.488281 309.503906 88.402344 285.984375 77.214844 251.128906 C 70.578125 230.457031 79.734375 216.417969 79.828125 216.277344 L 80.660156 216.835938 C 80.570312 216.972656 71.6875 230.632812 78.167969 250.824219 C 88.683594 283.582031 90.289062 306.488281 83.039062 319.28125 C 84.5625 317.542969 85.933594 315.664062 87.128906 313.628906 C 98.671875 293.984375 92.96875 265.1875 87.675781 245.234375 C 81.0625 220.304688 95.742188 193.28125 95.890625 193.011719 L 96.769531 193.496094 C 96.621094 193.761719 82.132812 220.441406 88.644531 244.976562 C 93.980469 265.101562 99.722656 294.167969 87.992188 314.136719 C 86.648438 316.421875 85.09375 318.515625 83.351562 320.433594 C 83.632812 320.335938 83.910156 320.234375 84.1875 320.132812 C 86.6875 317.558594 88.960938 314.523438 90.984375 311.011719 C 101.164062 293.34375 102.761719 267.363281 98.40625 253.425781 C 92.03125 233.03125 98.179688 221.421875 98.445312 220.9375 L 99.320312 221.414062 C 99.257812 221.53125 93.125 233.171875 99.359375 253.125 C 103.777344 267.269531 102.164062 293.609375 91.851562 311.507812 C 90.171875 314.425781 88.324219 317.019531 86.324219 319.304688 C 102.375 312.742188 115.140625 299.511719 117.945312 286.339844 C 118.941406 281.652344 119.136719 276.492188 118.84375 271.046875 C 122.917969 252.789062 113.390625 221.890625 109.832031 211.367188 C 109.316406 202.980469 109.914062 195.199219 112.621094 188.601562 C 113.621094 186.160156 114.375 183.851562 114.9375 181.644531" fill="#100f0d"/></g><g id="change1_9"><path d="M 107.113281 339.285156 L 102.277344 318.871094 C 100.941406 282.789062 139.144531 252.863281 139.527344 252.5625 L 138.917969 251.773438 C 138.527344 252.074219 99.921875 282.3125 101.289062 319.007812 L 106.140625 339.519531 Z M 63.570312 383.136719 L 58.941406 382.863281 C 36.25 382.121094 28.695312 373.796875 28.550781 373.644531 C 0.824219 352.097656 4.53125 262.960938 4.574219 262.0625 L 3.574219 262.019531 C 3.40625 265.703125 -0.199219 352.570312 27.867188 374.367188 C 28.175781 374.726562 35.722656 383.105469 58.894531 383.863281 L 63.511719 384.136719 Z M 146.53125 353.828125 L 145.535156 353.742188 L 147.574219 329.402344 L 148.570312 329.484375 L 146.53125 353.828125" fill="#100f0d"/></g><g id="change4_3"><path d="M 439.457031 226.722656 L 405.3125 227.835938 L 404.800781 218.015625 C 404.800781 218.015625 401.222656 220.824219 395.863281 219.804688 C 390.691406 218.820312 382.351562 210.484375 383.519531 175.167969 C 383.5625 173.871094 382.511719 172.996094 382.582031 171.625 C 382.710938 169.195312 382.972656 166.964844 383.34375 164.925781 C 386.152344 168.164062 390.261719 170.335938 395.550781 171.535156 L 396.800781 176.40625 C 401.042969 175.59375 404.453125 183.113281 405.332031 185.234375 L 405.550781 185.796875 L 413.730469 206.40625 C 413.730469 206.40625 427.523438 203.566406 434.164062 207.085938 L 439.457031 226.722656" fill="#ebadb1"/></g><g id="change5_2"><path d="M 431.5625 144.714844 C 431.261719 143.605469 430.703125 142.414062 429.652344 141.433594 C 427.882812 139.785156 425.152344 139.023438 421.503906 139.164062 C 426.59375 140.675781 429.851562 143.125 431.5625 144.714844 Z M 420.695312 176.269531 L 420.5625 175.28125 C 410.59375 176.601562 396.609375 171.214844 396.46875 171.160156 L 396.105469 172.09375 C 396.621094 172.292969 407.515625 176.492188 417.101562 176.492188 C 418.328125 176.492188 419.535156 176.425781 420.695312 176.269531 Z M 419.460938 174.765625 C 419.855469 174.765625 420.253906 174.753906 420.65625 174.730469 L 420.628906 174.230469 L 420.691406 173.734375 C 412.664062 172.703125 406.941406 157.15625 406.882812 156.996094 L 405.945312 157.339844 C 406.15625 157.917969 410.5625 169.886719 417.417969 173.660156 C 402.117188 172.105469 393.9375 153.679688 393.851562 153.480469 L 392.933594 153.878906 C 393.027344 154.09375 402.21875 174.765625 419.460938 174.765625 Z M 434.164062 207.085938 C 427.523438 203.566406 413.730469 206.40625 413.730469 206.40625 L 405.550781 185.796875 L 405.332031 185.234375 C 404.453125 183.113281 401.042969 175.59375 396.800781 176.40625 L 395.550781 171.535156 C 390.261719 170.335938 386.152344 168.164062 383.34375 164.925781 C 381.503906 162.796875 380.210938 160.203125 379.523438 157.125 C 377.480469 148.066406 386.863281 140.796875 406.074219 138.234375 C 410.941406 137.585938 415.0625 137.785156 418.523438 138.445312 C 423.953125 137.683594 427.921875 138.433594 430.34375 140.703125 C 432.082031 142.335938 432.664062 144.40625 432.8125 146.023438 C 432.941406 146.183594 433.011719 146.273438 433.011719 146.273438 C 433.011719 146.273438 440.210938 146.144531 447.824219 154.695312 C 455.992188 163.894531 434.164062 207.085938 434.164062 207.085938 Z M 383.253906 173.914062 L 387.753906 174.230469 L 382.613281 171.09375 C 382.53125 172.222656 383.253906 173.914062 383.253906 173.914062 Z M 418.160156 208.421875 L 418.328125 209.40625 C 418.449219 209.382812 430.449219 207.398438 434.703125 211.214844 L 435.371094 210.472656 C 430.761719 206.332031 418.671875 208.332031 418.160156 208.421875 Z M 414.550781 208.382812 L 414.359375 207.402344 C 415.035156 207.269531 430.894531 204.25 434.949219 208.570312 L 434.222656 209.253906 C 430.542969 205.332031 414.710938 208.351562 414.550781 208.382812" fill="#ca721c"/></g><g id="change3_5"><path d="M 491.609375 400.3125 C 476.761719 416.886719 460.984375 401.335938 460.984375 401.335938 C 451.425781 403.441406 443.640625 400.785156 443.640625 400.785156 L 376.585938 333.359375 L 373.351562 339.316406 C 363.136719 361.785156 344.453125 377.871094 344.453125 377.871094 C 322.28125 390.890625 318.445312 376.484375 315.734375 367.402344 C 315.351562 366.117188 315.378906 364.042969 315.710938 361.433594 L 313.777344 337.785156 L 321.882812 332.742188 L 323.292969 332.15625 C 327.105469 320.246094 330.882812 310.039062 330.882812 310.039062 L 346.710938 268.933594 L 356.535156 246.847656 L 396.441406 238.386719 L 402.933594 228.328125 C 402.933594 228.328125 409.648438 227.742188 417.308594 227.359375 C 424.96875 226.976562 444.882812 227.148438 444.882812 227.148438 L 445.273438 239.0625 L 445.683594 239.617188 L 484.328125 251.402344 L 488.667969 285.445312 L 492.839844 331.4375 L 493.289062 343.9375 C 497.652344 379.875 491.609375 400.3125 491.609375 400.3125" fill="#fff"/></g><g clip-path="url(#b)" id="change1_20"><path d="M 484.359375 255.125 C 483.101562 265.628906 479.453125 295.644531 475.292969 325.515625 C 466.363281 389.644531 462.648438 399.570312 460.984375 401.335938 C 463.734375 403.691406 477.429688 414.21875 489.417969 401.835938 C 501.429688 389.421875 487.328125 277.5625 484.359375 255.125 Z M 444.339844 227.148438 L 402.933594 228.328125 L 397.386719 238.738281 C 399.976562 241.226562 421.589844 260.722656 444.339844 241.980469 Z M 490.136719 402.53125 C 485.695312 407.117188 480.992188 408.675781 476.648438 408.675781 C 468.269531 408.679688 461.246094 402.890625 460.023438 401.820312 C 457.753906 402.460938 455.207031 402.6875 452.796875 402.6875 C 447.960938 402.6875 443.703125 401.820312 443.4375 401.765625 L 443.640625 400.785156 C 443.738281 400.804688 453.40625 402.777344 460.015625 400.796875 C 461.203125 400.4375 464.972656 392.378906 474.300781 325.375 C 479.140625 290.625 483.292969 255.671875 483.785156 251.5 L 445.339844 239.511719 L 445.339844 242.449219 L 445.160156 242.601562 C 437.636719 248.863281 430.226562 251.054688 423.550781 251.054688 C 409.167969 251.054688 398.171875 240.894531 396.605469 239.371094 L 356.535156 246.847656 C 354.09375 252.5 311.527344 351.574219 316.523438 369.480469 C 318.691406 377.25 323.296875 382.046875 329.160156 382.640625 C 336.882812 383.4375 353.5625 377.390625 378.800781 328.195312 C 391.566406 303.320312 394.371094 283.851562 387.140625 270.328125 C 379.230469 255.539062 361.734375 253.363281 361.558594 253.347656 L 361.675781 252.351562 C 361.855469 252.371094 379.867188 254.609375 388.023438 269.855469 C 395.417969 283.6875 392.613281 303.46875 379.691406 328.652344 C 355.496094 375.808594 338.8125 383.699219 330.363281 383.699219 C 329.90625 383.699219 329.46875 383.679688 329.058594 383.636719 C 322.765625 382.996094 317.84375 377.9375 315.5625 369.75 C 310.347656 351.070312 353.867188 250.476562 355.722656 246.203125 L 355.828125 245.960938 L 396.441406 238.386719 L 402.324219 227.34375 L 404.78125 227.273438 L 404.359375 218.90625 C 403.445312 219.453125 400.980469 220.730469 397.980469 220.730469 C 397.351562 220.730469 396.699219 220.675781 396.03125 220.542969 C 393.144531 219.972656 390.667969 218.128906 388.664062 215.0625 L 389.503906 214.515625 C 391.347656 217.347656 393.605469 219.042969 396.214844 219.558594 C 400.40625 220.394531 404.136719 217.867188 404.175781 217.84375 L 404.316406 218.050781 L 403.960938 210.867188 L 404.957031 210.820312 L 405.777344 227.246094 L 445.339844 226.121094 L 445.339844 238.464844 L 484.875 250.792969 L 484.835938 251.144531 C 485.710938 257.460938 503.726562 388.484375 490.136719 402.53125 Z M 396.796875 196.308594 C 395.039062 196.308594 391.550781 180.730469 390.996094 176.992188 C 390.433594 173.214844 390.773438 172.304688 391.460938 172.09375 C 393.488281 171.480469 395.835938 174.984375 396.621094 176.269531 L 398.179688 175.960938 L 398.375 176.941406 L 396.117188 177.386719 L 395.9375 177.078125 C 394.875 175.242188 392.894531 172.820312 391.816406 173.035156 C 390.742188 174.886719 395.558594 193.484375 396.941406 195.292969 C 397.679688 195.15625 399.105469 194.085938 399.941406 193.3125 L 400.621094 194.046875 C 400.214844 194.421875 398.117188 196.308594 396.796875 196.308594" fill="#100f0d"/></g><g id="change1_10"><path d="M 314.96875 365.566406 L 313.257812 337.515625 L 323.09375 331.53125 L 323.613281 332.386719 L 314.292969 338.054688 L 315.96875 365.507812 L 314.96875 365.566406" fill="#100f0d"/></g><g id="change4_4"><path d="M 316.710938 335.390625 C 316.710938 335.390625 314.863281 323.144531 315.128906 321.871094 C 315.394531 320.59375 325.863281 307.996094 327.054688 307.996094 C 328.246094 307.996094 330.988281 307.996094 330.988281 307.996094 C 330.988281 307.996094 322.960938 330.394531 322.835938 331.644531 L 316.710938 335.390625" fill="#ebadb1"/></g><g id="change1_11"><path d="M 323.511719 317.710938 L 322.578125 317.351562 L 326.289062 307.71875 L 330.964844 307.5 L 331.011719 308.496094 L 326.988281 308.6875 L 323.511719 317.710938" fill="#100f0d"/></g><g id="change3_6"><path d="M 333.476562 191.765625 L 327.519531 191.765625 C 323.753906 191.765625 320.667969 188.679688 320.667969 184.914062 C 320.667969 181.144531 323.753906 178.0625 327.519531 178.0625 L 333.476562 178.0625 C 337.246094 178.0625 340.328125 181.144531 340.328125 184.914062 C 340.328125 188.679688 337.246094 191.765625 333.476562 191.765625 Z M 295.882812 167.488281 C 295.882812 167.488281 298.628906 158.277344 306.457031 158.117188 C 314.285156 157.957031 313.570312 156.769531 313.570312 156.769531 C 313.570312 156.769531 322.285156 153.53125 326.203125 158.125 C 330.117188 162.722656 328.925781 163.996094 328.925781 163.996094 C 328.925781 163.996094 323.007812 175.488281 313.328125 176.421875 C 303.648438 177.359375 298.925781 170.636719 295.882812 167.488281 Z M 135.734375 42.488281 L 135.734375 194.65625 L 362.117188 194.65625 L 362.117188 42.488281 L 135.734375 42.488281" fill="#fff"/></g><g id="change1_12"><path d="M 361.617188 194.15625 L 136.234375 194.15625 L 136.234375 43.917969 L 361.617188 43.917969 Z M 248.753906 21.15625 L 277.519531 34.128906 L 219.984375 34.128906 Z M 368.15625 41.910156 C 368.15625 37.625 365.574219 34.128906 362.414062 34.128906 L 279.949219 34.128906 L 249.425781 20.363281 L 249.425781 -0.00390625 L 248.425781 -0.00390625 L 248.425781 20.207031 L 217.554688 34.128906 L 135.433594 34.128906 C 132.273438 34.128906 129.695312 37.625 129.695312 41.910156 L 129.695312 43.917969 L 135.234375 43.917969 L 135.234375 195.15625 L 362.617188 195.15625 L 362.617188 43.917969 L 368.15625 43.917969 L 368.15625 41.910156" fill="#100f0d"/></g><g id="change4_5"><path d="M 265.996094 93.976562 L 258.109375 93.976562 L 258.109375 98.617188 L 265.996094 98.617188 Z M 243.132812 102.605469 L 209.933594 124.984375 L 209.933594 84.953125 C 223.753906 84.953125 235.933594 91.953125 243.132812 102.605469" fill="#ebadb1"/></g><g id="change5_3"><path d="M 265.996094 87.273438 L 258.109375 87.273438 L 258.109375 91.914062 L 265.996094 91.914062 Z M 247.453125 138.996094 C 241.773438 154.195312 227.113281 165.015625 209.933594 165.015625 C 187.820312 165.015625 169.902344 147.09375 169.902344 124.984375 C 169.902344 102.875 187.820312 84.953125 209.933594 84.953125 L 209.933594 124.984375 L 247.453125 138.996094" fill="#ca721c"/></g><g id="change1_13"><path d="M 265.996094 100.675781 L 258.109375 100.675781 L 258.109375 105.316406 L 265.996094 105.316406 Z M 249.972656 124.984375 L 209.933594 124.984375 L 243.132812 102.605469 C 247.453125 108.996094 249.972656 116.683594 249.972656 124.984375" fill="#100f0d"/></g><g id="change2_3"><path d="M 320.585938 57.871094 L 176.570312 57.871094 L 176.570312 72.167969 L 320.585938 72.167969 Z M 209.933594 124.984375 L 247.453125 138.996094 C 249.082031 134.636719 249.972656 129.914062 249.972656 124.984375 Z M 265.996094 111.785156 L 258.109375 111.785156 L 258.109375 107.144531 L 265.996094 107.144531 L 265.996094 111.785156" fill="#bb4d81"/></g><g id="change4_6"><path d="M 245.726562 184.421875 L 236.691406 193.253906 L 231.738281 184.734375 C 228.148438 185.21875 217.585938 180.175781 217.585938 178.3125 C 217.585938 176.449219 224.421875 177.34375 224.421875 177.34375 C 218.621094 174.929688 215.03125 170.164062 216.066406 169.40625 C 217.101562 168.644531 225.871094 174.101562 225.871094 174.101562 C 225.871094 174.101562 215.238281 164.914062 216.894531 163.792969 C 218.550781 162.667969 227.804688 170.164062 227.804688 170.164062 C 227.804688 170.164062 226.90625 169.679688 224.488281 166.574219 C 222.074219 163.464844 220.691406 161.464844 222.558594 161.257812 C 224.421875 161.050781 233.882812 170.09375 233.882812 170.09375 L 234.503906 169.335938 C 234.503906 169.335938 231.878906 165.8125 233.328125 163.050781 C 234.777344 160.289062 235.953125 163.949219 238.4375 169.195312 C 240.925781 174.445312 238.9375 178.53125 238.9375 178.53125 L 241.890625 181.535156 L 245.726562 184.421875" fill="#ebadb1"/></g><g id="change1_14"><path d="M 229.027344 172.019531 L 229.71875 171.296875 L 228.167969 169.820312 C 222.242188 163.613281 222.214844 161.9375 222.214844 161.867188 L 221.722656 161.800781 L 221.238281 161.671875 C 221.121094 162.097656 221.226562 164 227.460938 170.527344 Z M 235.40625 169.796875 C 235.066406 169.644531 234.347656 168.328125 233.914062 167.238281 L 232.984375 167.605469 C 233.183594 168.105469 233.78125 169.527344 234.464844 170.285156 C 233.542969 171.289062 231.476562 174.027344 232.6875 177.421875 L 233.628906 177.085938 C 232.359375 173.523438 235.402344 170.742188 235.535156 170.625 L 236.109375 170.109375 Z M 232.0625 184.292969 L 233.589844 186.921875 L 232.726562 187.425781 L 231.417969 185.175781 L 229.675781 184.789062 L 229.664062 184.8125 C 227.660156 184.132812 217.625 180.640625 216.882812 178.648438 C 216.785156 178.378906 216.804688 178.101562 216.941406 177.871094 C 217.578125 176.789062 219.773438 176.546875 221.710938 176.558594 C 218.902344 174.722656 215.472656 171.28125 215.363281 169.832031 C 215.335938 169.433594 215.519531 169.101562 215.859375 168.949219 C 216.800781 168.523438 219.570312 169.835938 222.148438 171.28125 C 220.71875 169.914062 219.132812 168.363281 218.019531 167.1875 C 216.613281 165.703125 216.039062 164.671875 216.210938 163.941406 C 216.292969 163.59375 216.527344 163.394531 216.722656 163.320312 L 217.066406 164.261719 C 217.160156 164.226562 217.179688 164.183594 217.183594 164.167969 C 217.183594 164.175781 217.054688 164.714844 218.746094 166.503906 C 221.160156 169.050781 225.84375 173.390625 226.179688 173.703125 L 226.917969 174.171875 L 226.378906 175.015625 L 225.601562 174.523438 C 221.867188 172.148438 217.414062 169.75 216.367188 169.84375 C 216.585938 170.996094 221.332031 175.863281 224.128906 176.683594 C 224.339844 176.703125 224.507812 176.722656 224.644531 176.738281 L 224.878906 176.636719 C 225.0625 177.050781 225.90625 179.148438 224.644531 179.773438 L 224.199219 178.878906 C 224.386719 178.789062 224.34375 178.257812 224.191406 177.695312 C 221.699219 177.441406 218.328125 177.488281 217.804688 178.378906 C 218.050781 179.253906 224.136719 181.863281 229.738281 183.777344 L 232.0625 184.292969" fill="#100f0d"/></g><g id="change2_4"><path d="M 352.292969 242.214844 C 351.730469 236.285156 347.972656 226.125 347.972656 226.125 L 337.421875 230.746094 L 337.414062 230.726562 C 337.414062 230.726562 337.324219 230.773438 337.140625 230.863281 C 337.011719 230.925781 336.832031 231.003906 336.621094 231.09375 C 336.3125 231.246094 335.914062 231.425781 335.421875 231.625 L 335.421875 231.636719 C 328.832031 234.375 306.652344 241.703125 280.902344 229.183594 L 276.140625 221.015625 C 276.140625 221.015625 249.753906 235.144531 234.433594 190.214844 L 231.203125 188.675781 C 231.203125 188.675781 234.433594 179.144531 239.542969 177.613281 L 244.144531 180.335938 C 244.144531 180.335938 265.414062 182.726562 269.164062 186.296875 C 269.164062 186.296875 276.761719 162.476562 297.222656 164.535156 L 295.882812 167.183594 C 295.882812 167.183594 302.222656 176.246094 309.992188 176.523438 C 317.753906 176.804688 328.34375 170.203125 329.242188 162.234375 C 329.242188 162.234375 348.390625 163.066406 360.3125 181.105469 C 371.132812 197.496094 371.914062 226.894531 352.292969 242.214844" fill="#bb4d81"/></g><g id="change1_15"><path d="M 327.085938 216.589844 L 323.414062 214.417969 L 322.90625 215.277344 L 326.574219 217.449219 Z M 321.902344 217.226562 L 317.160156 214.417969 L 316.648438 215.277344 L 321.390625 218.089844 Z M 362.203125 205.378906 L 361.988281 204.402344 C 361.597656 204.488281 352.859375 206.46875 349.605469 213.371094 C 348.546875 210.671875 347.128906 208.535156 346.605469 207.796875 C 351.882812 198.558594 357.820312 183.140625 357.882812 182.984375 L 356.949219 182.628906 C 356.886719 182.785156 350.855469 198.441406 345.578125 207.578125 L 345.414062 207.863281 L 345.609375 208.128906 C 345.667969 208.207031 351.546875 216.164062 349.394531 222.324219 C 348.339844 225.339844 345.503906 227.46875 340.871094 228.691406 C 340.511719 228.863281 305.070312 245.878906 292.308594 225.308594 L 291.457031 225.835938 C 296.480469 233.929688 304.8125 236.445312 313.242188 236.445312 C 327.023438 236.445312 341.046875 229.710938 341.214844 229.621094 C 346.097656 228.347656 349.167969 226.003906 350.335938 222.652344 C 351.242188 220.066406 350.886719 217.265625 350.101562 214.78125 C 352.722656 207.53125 362.105469 205.402344 362.203125 205.378906 Z M 245.851562 211.394531 C 239.164062 203.503906 235.976562 192.15625 235.496094 190.339844 C 241.675781 183.25 243.800781 180.683594 243.820312 180.65625 L 243.050781 180.019531 C 243.027344 180.046875 240.871094 182.65625 234.570312 189.882812 L 234.398438 190.078125 L 234.460938 190.328125 C 234.492188 190.457031 237.683594 203.300781 245.085938 212.039062 C 251.769531 219.925781 258.714844 223.835938 266.125 223.835938 C 269.195312 223.835938 272.34375 223.164062 275.589844 221.824219 L 275.210938 220.902344 C 264.589844 225.285156 254.984375 222.175781 245.851562 211.394531 Z M 271.597656 199.351562 L 272.59375 199.453125 C 273.496094 190.921875 269.710938 186.175781 269.546875 185.980469 L 268.773438 186.613281 C 268.808594 186.65625 272.457031 191.253906 271.597656 199.351562 Z M 282.929688 179.316406 C 282.78125 179.476562 268.214844 195.589844 276.613281 220.859375 L 275.664062 221.175781 C 267.074219 195.324219 282.042969 178.800781 282.195312 178.636719 L 282.929688 179.316406" fill="#100f0d"/></g><g id="change1_16"><path d="M 313.570312 171.039062 C 313.113281 171.039062 312.746094 170.671875 312.746094 170.214844 C 312.746094 169.761719 313.113281 169.390625 313.570312 169.390625 C 314.023438 169.390625 314.394531 169.761719 314.394531 170.214844 C 314.394531 170.671875 314.023438 171.039062 313.570312 171.039062 Z M 313.570312 168.390625 C 312.5625 168.390625 311.746094 169.210938 311.746094 170.214844 C 311.746094 171.222656 312.5625 172.039062 313.570312 172.039062 C 314.574219 172.039062 315.394531 171.222656 315.394531 170.214844 C 315.394531 169.210938 314.574219 168.390625 313.570312 168.390625 Z M 305.03125 174.738281 C 306.742188 173.207031 309.753906 168.839844 312.320312 164.890625 C 314.535156 167.226562 318.605469 171.378906 320.679688 172.679688 C 318.609375 174.101562 311.90625 178.015625 305.03125 174.738281 Z M 329.742188 164.019531 C 329.730469 163.929688 328.519531 155.054688 320.277344 155.5625 L 320.339844 156.5625 C 327.0625 156.15625 328.503906 162.703125 328.71875 163.953125 C 325.902344 167.792969 322.429688 171.953125 321.660156 172.09375 C 320.8125 171.976562 316.390625 167.753906 312.609375 163.738281 L 312.171875 163.273438 L 311.824219 163.8125 C 308.640625 168.746094 304.855469 174.023438 304.117188 174.308594 C 303.386719 174.15625 299.695312 170.617188 296.460938 167.203125 C 297.078125 165.664062 300.390625 158.320312 307.414062 158.027344 L 307.371094 157.03125 C 298.898438 157.378906 295.445312 167.054688 295.410156 167.152344 L 295.3125 167.4375 L 295.519531 167.660156 C 297.570312 169.835938 302.339844 174.769531 303.847656 175.253906 C 306.175781 176.535156 308.496094 177.011719 310.664062 177.011719 C 316.519531 177.011719 321.242188 173.539062 321.886719 173.039062 C 323.566406 172.503906 327.828125 166.871094 329.648438 164.378906 L 329.765625 164.214844 L 329.742188 164.019531" fill="#100f0d"/></g><g id="change4_7"><path d="M 334.941406 143.226562 C 334.425781 144.507812 333.433594 145.445312 332.371094 146.066406 C 330.992188 146.875 329.351562 147.085938 327.863281 146.546875 C 326.632812 149.054688 324.933594 151.246094 322.902344 152.976562 L 323.925781 159.230469 C 315.054688 166.730469 303.839844 161.734375 303.839844 161.734375 L 305.453125 156.507812 C 298.503906 154.390625 294.300781 147.925781 293.273438 139.996094 C 293.140625 139.066406 293.082031 138.113281 293.082031 137.144531 C 293.082031 134.453125 293.574219 131.886719 294.472656 129.535156 C 305.691406 129.453125 312.042969 125.023438 315.421875 121.226562 C 316.0625 120.503906 317.65625 118.402344 318.09375 117.765625 C 321.335938 118.972656 325.164062 121.300781 327.414062 123.890625 C 329.777344 126.582031 330.902344 130.308594 329.796875 134.601562 C 330.480469 134.246094 331.484375 134.519531 332.328125 134.882812 C 333.53125 135.402344 334.445312 136.390625 334.910156 137.613281 C 335.441406 139.015625 335.820312 141.054688 334.941406 143.226562" fill="#ebadb1"/></g><g id="change3_7"><path d="M 305.453125 136.210938 C 305.453125 136.210938 303.710938 132.527344 300.011719 133.359375 C 296.308594 134.1875 296.753906 136.59375 296.753906 136.59375 C 296.753906 136.59375 296.882812 140.550781 301.414062 140.167969 C 305.945312 139.785156 305.453125 136.210938 305.453125 136.210938 Z M 313.328125 135.953125 C 313.328125 135.953125 318.011719 129.125 322.863281 134.550781 C 322.863281 134.550781 322.839844 139.914062 318.09375 139.785156 C 313.351562 139.65625 313.328125 135.953125 313.328125 135.953125" fill="#fff"/></g><g id="change2_5"><path d="M 309.414062 147.488281 C 309.414062 147.488281 310.351562 146.253906 311.96875 146.339844 C 313.585938 146.421875 315.285156 147.78125 316.902344 147.1875 C 316.902344 147.1875 314.820312 152.382812 309.753906 152.125 C 304.691406 151.871094 303.074219 148.210938 303.074219 148.210938 C 303.074219 148.210938 304.742188 147.394531 306.011719 146.636719 C 307.5 145.742188 309.414062 147.488281 309.414062 147.488281" fill="#bb4d81"/></g><g id="change3_8"><path d="M 305.453125 148.5625 C 309.195312 149.742188 314.328125 148.242188 314.328125 148.242188 C 310.15625 151.625 305.453125 148.5625 305.453125 148.5625" fill="#fff"/></g><g id="change1_17"><path d="M 315.695312 155.667969 L 315.03125 154.921875 C 315.007812 154.941406 312.410156 157.132812 306.648438 156.003906 L 306.457031 156.984375 C 307.71875 157.234375 308.839844 157.332031 309.828125 157.332031 C 313.769531 157.332031 315.601562 155.753906 315.695312 155.667969 Z M 333 138.316406 L 333.214844 137.339844 C 331.671875 136.996094 328.476562 137.195312 327.414062 140.375 L 328.363281 140.691406 C 329.402344 137.574219 332.855469 138.285156 333 138.316406 Z M 312.320312 143.34375 L 309.964844 142.992188 L 309.816406 143.980469 L 312.171875 144.332031 Z M 305.625 142.152344 C 305.503906 141.128906 307.027344 140.09375 307.625 139.78125 L 307.164062 138.894531 C 307.050781 138.953125 304.402344 140.351562 304.632812 142.269531 Z M 317.960938 146.980469 C 317.355469 146.898438 316.636719 146.242188 316.410156 145.996094 L 315.671875 146.671875 C 315.78125 146.789062 316.75 147.824219 317.824219 147.972656 Z M 303.761719 139.503906 C 304.324219 136.496094 304.351562 134.679688 301.710938 134.847656 C 299.074219 135.019531 300.347656 140.175781 300.347656 140.175781 C 302.28125 140.785156 303.761719 139.503906 303.761719 139.503906 Z M 320.972656 138.914062 C 320.972656 138.914062 322.488281 134.976562 320.972656 134.039062 C 319.457031 133.105469 314.847656 133.015625 316.664062 139.613281 C 316.664062 139.613281 319.425781 140.339844 320.972656 138.914062 Z M 305.453125 136.210938 C 305.453125 136.210938 304.820312 133.019531 302.179688 132.765625 C 299.542969 132.507812 297.117188 133.613281 295.882812 132.976562 L 296.800781 136.972656 C 296.800781 136.972656 298.265625 133.570312 300.902344 133.65625 C 303.542969 133.742188 305.453125 136.210938 305.453125 136.210938 Z M 313.328125 135.953125 C 313.328125 135.953125 314.863281 131.785156 318.988281 131.828125 C 323.117188 131.871094 324.179688 131.359375 324.179688 131.359375 L 322.863281 134.550781 C 322.863281 134.550781 319.328125 131.53125 316.519531 133.445312 C 313.710938 135.359375 313.328125 135.953125 313.328125 135.953125" fill="#100f0d"/></g><g id="change5_4"><path d="M 314.078125 124.660156 C 312.058594 126.738281 307.910156 129.015625 299.503906 129.167969 C 307.644531 128.035156 312.585938 124.414062 315.421875 121.226562 C 315.785156 120.816406 316.109375 120.414062 316.410156 120.027344 C 316.246094 121.167969 315.71875 122.972656 314.078125 124.660156 Z M 334.121094 117.882812 C 329.96875 117.226562 326.871094 115.453125 324.914062 112.585938 C 322.355469 108.835938 322.292969 104.089844 322.652344 100.875 C 321.109375 101.316406 319.667969 102.097656 318.441406 103.191406 C 318.386719 103.585938 318.355469 103.976562 318.351562 104.378906 C 318.277344 110.226562 323.445312 115.050781 323.5 115.097656 L 322.820312 115.835938 C 322.59375 115.625 317.273438 110.65625 317.351562 104.367188 C 317.351562 104.351562 317.355469 104.335938 317.355469 104.324219 C 317.054688 104.683594 316.769531 105.058594 316.511719 105.464844 L 314.542969 108.605469 C 313.824219 109.753906 313.351562 110.984375 313.113281 112.246094 C 303.710938 112.644531 295.640625 119.894531 294.363281 129.535156 L 294.25 130.148438 C 295.746094 130.253906 297.359375 130.191406 298.714844 130.191406 C 306.289062 130.191406 311.695312 128.5625 314.816406 125.335938 C 317.097656 122.976562 317.445312 120.457031 317.476562 119.339844 C 320.542969 120.558594 323.335938 122.433594 325.480469 124.90625 C 327.84375 127.59375 329.453125 130.996094 329.84375 135.015625 C 330.742188 135.023438 330.632812 134.925781 331.730469 135.214844 C 332.171875 135.324219 332.992188 135.664062 333.324219 135.953125 L 333.332031 135.886719 L 333.503906 134.625 C 333.621094 133.746094 333.671875 132.875 333.671875 132.015625 C 333.671875 128.484375 332.710938 125.09375 331.011719 122.164062 C 331.671875 121.554688 332.261719 120.84375 332.761719 120.046875 Z M 336.363281 111.214844 C 336.363281 112.378906 336.152344 113.542969 335.769531 114.671875 C 333.175781 113.582031 331.320312 111.902344 330.261719 109.644531 C 328.984375 106.914062 329.035156 103.757812 329.457031 101.140625 C 330.105469 101.386719 330.734375 101.695312 331.34375 102.074219 C 334.582031 104.113281 336.363281 107.625 336.363281 111.214844 Z M 329.355469 110.066406 C 327.9375 107.039062 328.007812 103.613281 328.476562 100.820312 C 326.902344 100.394531 325.269531 100.34375 323.699219 100.628906 C 323.324219 103.691406 323.289062 108.429688 325.742188 112.023438 C 327.601562 114.746094 330.621094 116.394531 334.703125 116.953125 L 334.730469 116.90625 C 334.996094 116.484375 335.222656 116.050781 335.417969 115.609375 C 332.574219 114.421875 330.53125 112.570312 329.355469 110.066406 Z M 312.503906 130.195312 L 311.007812 128.867188 C 312.578125 127.097656 316.910156 124.402344 322.078125 126.882812 L 321.214844 128.6875 C 316.136719 126.25 312.648438 130.035156 312.503906 130.195312" fill="#ca721c"/></g><g id="change1_18"><path d="M 311.53125 163.746094 C 309.113281 163.746094 306.460938 163.324219 303.652344 162.199219 L 304.027344 161.269531 C 314.960938 165.65625 323.527344 158.910156 323.613281 158.84375 L 324.238281 159.621094 C 324.171875 159.675781 319.003906 163.746094 311.53125 163.746094" fill="#100f0d"/></g></g></svg>